<svg width="821" height="924" viewBox="0 0 821 924" fill="none" xmlns="http://www.w3.org/2000/svg">
<path d="M403.88 692.308C313.247 692.308 235.563 630.747 214.971 542.612L97.9995 80.5852C93.3514 60.7159 97.8868 40.4898 110.357 24.7709C122.845 9.0332 141.541 0 161.654 0H646.095C666.209 0 684.904 9.0332 697.393 24.7709C709.863 40.4898 714.398 60.7159 709.835 80.2471L592.694 542.95C572.186 630.747 494.512 692.308 403.88 692.308ZM161.654 38.4615C153.354 38.4615 145.635 42.18 140.489 48.6779C135.353 55.1382 133.494 63.4578 135.362 71.4956L252.334 533.522C268.926 604.511 331.21 653.846 403.87 653.846H403.88C476.54 653.846 538.824 604.511 555.331 533.86L672.472 71.1576C674.256 63.4578 672.397 55.1382 667.26 48.6779C662.115 42.18 654.396 38.4615 646.095 38.4615H161.654V38.4615Z" fill="#EE1CB3"/>
<path d="M643.081 465.294C630.001 465.294 616.263 463.924 601.859 461.182C591.427 459.191 584.581 449.125 586.572 438.683C588.572 428.241 598.572 421.443 609.07 423.396C653.682 431.904 688.059 424.823 714.117 401.743C763.386 358.117 769.461 268.893 769.677 230.75H659.401C648.781 230.75 640.17 222.149 640.17 211.52C640.17 200.89 648.781 192.289 659.401 192.289H788.495C798.599 192.289 806.984 200.12 807.679 210.205C808.101 216.346 817.182 361.741 739.704 430.476C713.572 453.651 681.176 465.294 643.081 465.294Z" fill="#EE1CB3"/>
<path d="M165.119 465.294C127.024 465.294 94.638 453.651 68.5055 430.476C-8.97156 361.741 0.108597 216.346 0.531147 210.205C1.22601 200.12 9.6113 192.289 19.715 192.289H148.809C159.429 192.289 168.04 200.89 168.04 211.52C168.04 222.149 159.429 230.75 148.809 230.75H38.5326C38.7485 268.893 44.8239 358.117 94.0933 401.762C120.16 424.823 154.537 431.904 199.13 423.396C209.619 421.462 219.629 428.241 221.629 438.683C223.619 449.125 216.774 459.191 206.342 461.182C191.947 463.924 178.2 465.294 165.119 465.294Z" fill="#EE1CB3"/>
<path d="M442.341 807.674H365.418C354.798 807.674 346.187 799.072 346.187 788.443V673.058C346.187 662.429 354.798 653.827 365.418 653.827H442.341C452.961 653.827 461.572 662.429 461.572 673.058V788.443C461.572 799.072 452.961 807.674 442.341 807.674ZM384.649 769.212H423.11V692.289H384.649V769.212Z" fill="#EE1CB3"/>
<path d="M615.418 923.058H192.341V865.366C192.341 812.35 235.479 769.212 288.495 769.212H519.264C572.28 769.212 615.418 812.35 615.418 865.366V923.058ZM230.803 884.597H576.957V865.366C576.957 833.552 551.078 807.674 519.264 807.674H288.495C256.682 807.674 230.803 833.552 230.803 865.366V884.597V884.597Z" fill="#EE1CB3"/>
<g style="mix-blend-mode:multiply">
<path d="M415.88 692.308C325.247 692.308 247.563 630.747 226.971 542.612L109.999 80.5852C105.351 60.7159 109.887 40.4898 122.357 24.7709C134.845 9.0332 153.541 0 173.654 0H658.095C678.209 0 696.904 9.0332 709.393 24.7709C721.863 40.4898 726.398 60.7159 721.835 80.2471L604.694 542.95C584.186 630.747 506.512 692.308 415.88 692.308ZM173.654 38.4615C165.354 38.4615 157.635 42.18 152.489 48.6779C147.353 55.1382 145.494 63.4578 147.362 71.4956L264.334 533.522C280.926 604.511 343.21 653.846 415.87 653.846H415.88C488.54 653.846 550.824 604.511 567.331 533.86L684.472 71.1576C686.256 63.4578 684.397 55.1382 679.26 48.6779C674.115 42.18 666.396 38.4615 658.095 38.4615H173.654V38.4615Z" fill="#1CEEEE"/>
<path d="M655.081 465.294C642.001 465.294 628.263 463.924 613.859 461.182C603.427 459.191 596.581 449.125 598.572 438.683C600.572 428.241 610.572 421.443 621.07 423.396C665.682 431.904 700.059 424.823 726.117 401.743C775.386 358.117 781.461 268.893 781.677 230.75H671.401C660.781 230.75 652.17 222.149 652.17 211.52C652.17 200.89 660.781 192.289 671.401 192.289H800.495C810.599 192.289 818.984 200.12 819.679 210.205C820.101 216.346 829.182 361.741 751.704 430.476C725.572 453.651 693.176 465.294 655.081 465.294Z" fill="#1CEEEE"/>
<path d="M177.119 465.294C139.024 465.294 106.638 453.651 80.5055 430.476C3.02844 361.741 12.1086 216.346 12.5311 210.205C13.226 200.12 21.6113 192.289 31.715 192.289H160.809C171.429 192.289 180.04 200.89 180.04 211.52C180.04 222.149 171.429 230.75 160.809 230.75H50.5326C50.7485 268.893 56.8239 358.117 106.093 401.762C132.16 424.823 166.537 431.904 211.13 423.396C221.619 421.462 231.629 428.241 233.629 438.683C235.619 449.125 228.774 459.191 218.342 461.182C203.947 463.924 190.2 465.294 177.119 465.294Z" fill="#1CEEEE"/>
<path d="M454.341 807.674H377.418C366.798 807.674 358.187 799.072 358.187 788.443V673.058C358.187 662.429 366.798 653.827 377.418 653.827H454.341C464.961 653.827 473.572 662.429 473.572 673.058V788.443C473.572 799.072 464.961 807.674 454.341 807.674ZM396.649 769.212H435.11V692.289H396.649V769.212Z" fill="#1CEEEE"/>
<path d="M627.418 923.058H204.341V865.366C204.341 812.35 247.479 769.212 300.495 769.212H531.264C584.28 769.212 627.418 812.35 627.418 865.366V923.058ZM242.803 884.597H588.957V865.366C588.957 833.552 563.078 807.674 531.264 807.674H300.495C268.682 807.674 242.803 833.552 242.803 865.366V884.597V884.597Z" fill="#1CEEEE"/>
</g>
<path d="M285.624 160.456V229H299.736V183.112H299.928L328.44 229H343.512V160.456H329.4V206.44H329.208L300.6 160.456H285.624ZM354.764 194.632C354.956 191.432 355.756 188.776 357.164 186.664C358.572 184.552 360.364 182.856 362.54 181.576C364.716 180.296 367.148 179.4 369.836 178.888C372.588 178.312 375.34 178.024 378.092 178.024C380.588 178.024 383.116 178.216 385.676 178.6C388.236 178.92 390.572 179.592 392.684 180.616C394.796 181.64 396.524 183.08 397.868 184.936C399.212 186.728 399.884 189.128 399.884 192.136V217.96C399.884 220.2 400.012 222.344 400.268 224.392C400.524 226.44 400.972 227.976 401.612 229H387.788C387.532 228.232 387.308 227.464 387.116 226.696C386.988 225.864 386.892 225.032 386.828 224.2C384.652 226.44 382.092 228.008 379.148 228.904C376.204 229.8 373.196 230.248 370.124 230.248C367.756 230.248 365.548 229.96 363.5 229.384C361.452 228.808 359.66 227.912 358.124 226.696C356.588 225.48 355.372 223.944 354.476 222.088C353.644 220.232 353.228 218.024 353.228 215.464C353.228 212.648 353.708 210.344 354.668 208.552C355.692 206.696 356.972 205.224 358.508 204.136C360.108 203.048 361.9 202.248 363.884 201.736C365.932 201.16 367.98 200.712 370.028 200.392C372.076 200.072 374.092 199.816 376.076 199.624C378.06 199.432 379.82 199.144 381.356 198.76C382.892 198.376 384.108 197.832 385.004 197.128C385.9 196.36 386.316 195.272 386.252 193.864C386.252 192.392 385.996 191.24 385.484 190.408C385.036 189.512 384.396 188.84 383.564 188.392C382.796 187.88 381.868 187.56 380.78 187.432C379.756 187.24 378.636 187.144 377.42 187.144C374.732 187.144 372.62 187.72 371.084 188.872C369.548 190.024 368.652 191.944 368.396 194.632H354.764ZM386.252 204.712C385.676 205.224 384.94 205.64 384.044 205.96C383.212 206.216 382.284 206.44 381.26 206.632C380.3 206.824 379.276 206.984 378.188 207.112C377.1 207.24 376.012 207.4 374.924 207.592C373.9 207.784 372.876 208.04 371.852 208.36C370.892 208.68 370.028 209.128 369.26 209.704C368.556 210.216 367.98 210.888 367.532 211.72C367.084 212.552 366.86 213.608 366.86 214.888C366.86 216.104 367.084 217.128 367.532 217.96C367.98 218.792 368.588 219.464 369.356 219.976C370.124 220.424 371.02 220.744 372.044 220.936C373.068 221.128 374.124 221.224 375.212 221.224C377.9 221.224 379.98 220.776 381.452 219.88C382.924 218.984 384.012 217.928 384.716 216.712C385.42 215.432 385.836 214.152 385.964 212.872C386.156 211.592 386.252 210.568 386.252 209.8V204.712ZM410.849 179.368V229H424.481V200.2C424.481 197.768 424.833 195.816 425.537 194.344C426.241 192.808 427.073 191.656 428.033 190.888C429.057 190.056 430.081 189.512 431.105 189.256C432.193 188.936 433.057 188.776 433.697 188.776C435.873 188.776 437.505 189.16 438.593 189.928C439.745 190.632 440.545 191.592 440.993 192.808C441.505 194.024 441.793 195.368 441.857 196.84C441.921 198.248 441.953 199.688 441.953 201.16V229H455.585V201.352C455.585 199.816 455.681 198.312 455.873 196.84C456.129 195.304 456.577 193.96 457.217 192.808C457.921 191.592 458.849 190.632 460.001 189.928C461.217 189.16 462.785 188.776 464.705 188.776C466.625 188.776 468.129 189.096 469.217 189.736C470.369 190.376 471.233 191.24 471.809 192.328C472.385 193.416 472.737 194.696 472.865 196.168C472.993 197.64 473.057 199.208 473.057 200.872V229H486.689V195.784C486.689 192.584 486.241 189.864 485.345 187.624C484.449 185.32 483.201 183.464 481.601 182.056C480.001 180.648 478.081 179.624 475.841 178.984C473.601 178.344 471.169 178.024 468.545 178.024C465.089 178.024 462.081 178.856 459.521 180.52C457.025 182.184 455.041 184.104 453.569 186.28C452.225 183.208 450.241 181.064 447.617 179.848C445.057 178.632 442.209 178.024 439.073 178.024C435.809 178.024 432.897 178.728 430.337 180.136C427.841 181.544 425.697 183.528 423.905 186.088H423.713V179.368H410.849ZM530.873 198.856H508.697C508.761 197.896 508.953 196.808 509.273 195.592C509.657 194.376 510.265 193.224 511.097 192.136C511.993 191.048 513.145 190.152 514.553 189.448C516.025 188.68 517.849 188.296 520.025 188.296C523.353 188.296 525.817 189.192 527.417 190.984C529.081 192.776 530.233 195.4 530.873 198.856ZM508.697 207.496H544.505C544.761 203.656 544.441 199.976 543.545 196.456C542.649 192.936 541.177 189.8 539.129 187.048C537.145 184.296 534.585 182.12 531.449 180.52C528.313 178.856 524.633 178.024 520.409 178.024C516.633 178.024 513.177 178.696 510.041 180.04C506.969 181.384 504.313 183.24 502.073 185.608C499.833 187.912 498.105 190.664 496.889 193.864C495.673 197.064 495.065 200.52 495.065 204.232C495.065 208.072 495.641 211.592 496.793 214.792C498.009 217.992 499.705 220.744 501.881 223.048C504.057 225.352 506.713 227.144 509.849 228.424C512.985 229.64 516.505 230.248 520.409 230.248C526.041 230.248 530.841 228.968 534.809 226.408C538.777 223.848 541.721 219.592 543.641 213.64H531.641C531.193 215.176 529.977 216.648 527.993 218.056C526.009 219.4 523.641 220.072 520.889 220.072C517.049 220.072 514.105 219.08 512.057 217.096C510.009 215.112 508.889 211.912 508.697 207.496Z" fill="#EE1CB3"/>
<g style="mix-blend-mode:multiply">
<path d="M290.624 160.456V229H304.736V183.112H304.928L333.44 229H348.512V160.456H334.4V206.44H334.208L305.6 160.456H290.624ZM359.764 194.632C359.956 191.432 360.756 188.776 362.164 186.664C363.572 184.552 365.364 182.856 367.54 181.576C369.716 180.296 372.148 179.4 374.836 178.888C377.588 178.312 380.34 178.024 383.092 178.024C385.588 178.024 388.116 178.216 390.676 178.6C393.236 178.92 395.572 179.592 397.684 180.616C399.796 181.64 401.524 183.08 402.868 184.936C404.212 186.728 404.884 189.128 404.884 192.136V217.96C404.884 220.2 405.012 222.344 405.268 224.392C405.524 226.44 405.972 227.976 406.612 229H392.788C392.532 228.232 392.308 227.464 392.116 226.696C391.988 225.864 391.892 225.032 391.828 224.2C389.652 226.44 387.092 228.008 384.148 228.904C381.204 229.8 378.196 230.248 375.124 230.248C372.756 230.248 370.548 229.96 368.5 229.384C366.452 228.808 364.66 227.912 363.124 226.696C361.588 225.48 360.372 223.944 359.476 222.088C358.644 220.232 358.228 218.024 358.228 215.464C358.228 212.648 358.708 210.344 359.668 208.552C360.692 206.696 361.972 205.224 363.508 204.136C365.108 203.048 366.9 202.248 368.884 201.736C370.932 201.16 372.98 200.712 375.028 200.392C377.076 200.072 379.092 199.816 381.076 199.624C383.06 199.432 384.82 199.144 386.356 198.76C387.892 198.376 389.108 197.832 390.004 197.128C390.9 196.36 391.316 195.272 391.252 193.864C391.252 192.392 390.996 191.24 390.484 190.408C390.036 189.512 389.396 188.84 388.564 188.392C387.796 187.88 386.868 187.56 385.78 187.432C384.756 187.24 383.636 187.144 382.42 187.144C379.732 187.144 377.62 187.72 376.084 188.872C374.548 190.024 373.652 191.944 373.396 194.632H359.764ZM391.252 204.712C390.676 205.224 389.94 205.64 389.044 205.96C388.212 206.216 387.284 206.44 386.26 206.632C385.3 206.824 384.276 206.984 383.188 207.112C382.1 207.24 381.012 207.4 379.924 207.592C378.9 207.784 377.876 208.04 376.852 208.36C375.892 208.68 375.028 209.128 374.26 209.704C373.556 210.216 372.98 210.888 372.532 211.72C372.084 212.552 371.86 213.608 371.86 214.888C371.86 216.104 372.084 217.128 372.532 217.96C372.98 218.792 373.588 219.464 374.356 219.976C375.124 220.424 376.02 220.744 377.044 220.936C378.068 221.128 379.124 221.224 380.212 221.224C382.9 221.224 384.98 220.776 386.452 219.88C387.924 218.984 389.012 217.928 389.716 216.712C390.42 215.432 390.836 214.152 390.964 212.872C391.156 211.592 391.252 210.568 391.252 209.8V204.712ZM415.849 179.368V229H429.481V200.2C429.481 197.768 429.833 195.816 430.537 194.344C431.241 192.808 432.073 191.656 433.033 190.888C434.057 190.056 435.081 189.512 436.105 189.256C437.193 188.936 438.057 188.776 438.697 188.776C440.873 188.776 442.505 189.16 443.593 189.928C444.745 190.632 445.545 191.592 445.993 192.808C446.505 194.024 446.793 195.368 446.857 196.84C446.921 198.248 446.953 199.688 446.953 201.16V229H460.585V201.352C460.585 199.816 460.681 198.312 460.873 196.84C461.129 195.304 461.577 193.96 462.217 192.808C462.921 191.592 463.849 190.632 465.001 189.928C466.217 189.16 467.785 188.776 469.705 188.776C471.625 188.776 473.129 189.096 474.217 189.736C475.369 190.376 476.233 191.24 476.809 192.328C477.385 193.416 477.737 194.696 477.865 196.168C477.993 197.64 478.057 199.208 478.057 200.872V229H491.689V195.784C491.689 192.584 491.241 189.864 490.345 187.624C489.449 185.32 488.201 183.464 486.601 182.056C485.001 180.648 483.081 179.624 480.841 178.984C478.601 178.344 476.169 178.024 473.545 178.024C470.089 178.024 467.081 178.856 464.521 180.52C462.025 182.184 460.041 184.104 458.569 186.28C457.225 183.208 455.241 181.064 452.617 179.848C450.057 178.632 447.209 178.024 444.073 178.024C440.809 178.024 437.897 178.728 435.337 180.136C432.841 181.544 430.697 183.528 428.905 186.088H428.713V179.368H415.849ZM535.873 198.856H513.697C513.761 197.896 513.953 196.808 514.273 195.592C514.657 194.376 515.265 193.224 516.097 192.136C516.993 191.048 518.145 190.152 519.553 189.448C521.025 188.68 522.849 188.296 525.025 188.296C528.353 188.296 530.817 189.192 532.417 190.984C534.081 192.776 535.233 195.4 535.873 198.856ZM513.697 207.496H549.505C549.761 203.656 549.441 199.976 548.545 196.456C547.649 192.936 546.177 189.8 544.129 187.048C542.145 184.296 539.585 182.12 536.449 180.52C533.313 178.856 529.633 178.024 525.409 178.024C521.633 178.024 518.177 178.696 515.041 180.04C511.969 181.384 509.313 183.24 507.073 185.608C504.833 187.912 503.105 190.664 501.889 193.864C500.673 197.064 500.065 200.52 500.065 204.232C500.065 208.072 500.641 211.592 501.793 214.792C503.009 217.992 504.705 220.744 506.881 223.048C509.057 225.352 511.713 227.144 514.849 228.424C517.985 229.64 521.505 230.248 525.409 230.248C531.041 230.248 535.841 228.968 539.809 226.408C543.777 223.848 546.721 219.592 548.641 213.64H536.641C536.193 215.176 534.977 216.648 532.993 218.056C531.009 219.4 528.641 220.072 525.889 220.072C522.049 220.072 519.105 219.08 517.057 217.096C515.009 215.112 513.889 211.912 513.697 207.496Z" fill="#1CEEEE"/>
</g>
<path d="M342.624 355.456V424H357.696V401.92L366.336 393.184L386.976 424H405.888L376.512 382.528L403.296 355.456H384.48L357.696 383.872V355.456H342.624ZM426.977 411.328V368.128H437.729C441.441 368.128 444.545 368.672 447.041 369.76C449.601 370.784 451.649 372.288 453.185 374.272C454.721 376.256 455.809 378.656 456.449 381.472C457.153 384.224 457.505 387.328 457.505 390.784C457.505 394.56 457.025 397.76 456.065 400.384C455.105 403.008 453.825 405.152 452.225 406.816C450.625 408.416 448.801 409.568 446.753 410.272C444.705 410.976 442.593 411.328 440.417 411.328H426.977ZM411.905 355.456V424H441.473C446.721 424 451.265 423.136 455.105 421.408C459.009 419.616 462.241 417.184 464.801 414.112C467.425 411.04 469.377 407.392 470.657 403.168C471.937 398.944 472.577 394.336 472.577 389.344C472.577 383.648 471.777 378.688 470.177 374.464C468.641 370.24 466.465 366.72 463.649 363.904C460.897 361.088 457.601 358.976 453.761 357.568C449.985 356.16 445.889 355.456 441.473 355.456H411.905Z" fill="#EE1CB3"/>
<g style="mix-blend-mode:multiply">
<path d="M349.624 355.456V424H364.696V401.92L373.336 393.184L393.976 424H412.888L383.512 382.528L410.296 355.456H391.48L364.696 383.872V355.456H349.624ZM433.977 411.328V368.128H444.729C448.441 368.128 451.545 368.672 454.041 369.76C456.601 370.784 458.649 372.288 460.185 374.272C461.721 376.256 462.809 378.656 463.449 381.472C464.153 384.224 464.505 387.328 464.505 390.784C464.505 394.56 464.025 397.76 463.065 400.384C462.105 403.008 460.825 405.152 459.225 406.816C457.625 408.416 455.801 409.568 453.753 410.272C451.705 410.976 449.593 411.328 447.417 411.328H433.977ZM418.905 355.456V424H448.473C453.721 424 458.265 423.136 462.105 421.408C466.009 419.616 469.241 417.184 471.801 414.112C474.425 411.04 476.377 407.392 477.657 403.168C478.937 398.944 479.577 394.336 479.577 389.344C479.577 383.648 478.777 378.688 477.177 374.464C475.641 370.24 473.465 366.72 470.649 363.904C467.897 361.088 464.601 358.976 460.761 357.568C456.985 356.16 452.889 355.456 448.473 355.456H418.905Z" fill="#1CEEEE"/>
</g>
</svg>
